<svg version="1.2" xmlns="http://www.w3.org/2000/svg" viewBox="0 0 256 199" width="256" height="199">
	<title>image</title>
	<style>
		.s0 { fill: #7a9da1 } 
	</style>
	<path id="Path 0" fill-rule="evenodd" class="s0" d="m90 0.1c2.1-0.1 3 0.9 9 12.9l8.8-0.7c4.8-0.4 13.4-0.7 19.2-0.7 5.8 0 14.9 0.3 30 1.4l3.3-6.5c2.3-4.8 3.7-6.5 5.2-6.5 1.1 0 5.8 0.9 10.5 1.9 4.7 1.1 12.6 3.3 17.5 5 4.9 1.6 12.2 4.3 16 5.9 6.4 2.7 7.4 3.5 11.7 9.8 2.6 3.8 7.9 13.2 11.7 20.9 4.1 8.1 9.1 20.3 12 29 2.7 8.3 5.8 19.7 7 25.5 1.1 5.8 2.5 14.5 3.1 19.5 0.5 5 1 16.9 1 26.5 0 9.6-0.4 18.6-0.8 19.9-0.4 1.5-3.8 4.4-8.7 7.6-4.4 2.9-12.7 7.9-18.5 11.1-5.8 3.2-16.6 8.2-37.5 16.4l-2-2.5c-1.1-1.3-4.1-5.9-6.7-10.2-2.6-4.3-5-8.6-5.3-9.5-0.4-1.5 1.6-2.8 21-11.9l-2.5-1.9c-2.3-1.7-2.8-1.7-6-0.3-1.9 0.8-6.4 2.6-10 4-3.6 1.3-11 3.5-16.5 4.8-5.5 1.3-15.6 2.9-22.5 3.5-9.5 0.9-15.3 0.9-24 0.1-6.3-0.7-15.5-2.1-20.5-3.2-5-1.1-12.6-3.2-17-4.8-4.4-1.6-9.6-3.5-11.5-4.4-3.3-1.4-3.7-1.4-8.5 2.2l10.8 5c5.9 2.8 10.7 5.4 10.7 5.9 0 0.4-2.7 5.2-6 10.7-3.4 5.5-6.7 10.5-7.3 11.2-0.9 0.9-4.2 0-14.2-3.8-7.2-2.7-17.3-7.3-22.5-10.1-5.2-2.8-13.8-7.9-19-11.3-6.1-4-9.8-7.1-10.2-8.6-0.4-1.3-0.8-11.2-0.8-21.9 0-12.4 0.6-23.3 1.6-30 0.8-5.8 2.4-14.3 3.5-19 1.1-4.7 3.6-13.5 5.6-19.5 2-6 5.8-16 8.5-22 2.7-6 8.1-16.3 18.8-34.5l7.2-3.4c4-1.9 11.6-4.9 16.8-6.6 5.2-1.8 13.1-4 17.5-5 4.4-1 9.1-1.9 10.5-1.9zm-17.9 88.7c-2.4 2-5.3 5.5-6.4 7.7-1.1 2.2-2.2 6.7-2.5 10-0.3 4 0.1 7.6 1.2 11 0.8 2.8 3 6.8 4.8 8.9 1.8 2.1 5.1 4.8 7.3 5.9 2.4 1.3 5.9 2.1 9 2.1 3.1 0 6.6-0.8 9-2.1 2.2-1.1 5.5-3.8 7.3-5.9 1.8-2.1 3.9-6.1 4.7-8.9 0.9-2.7 1.5-6.6 1.5-8.5 0-1.9-0.6-5.7-1.4-8.5-0.9-2.9-3.2-7-5.5-9.7-3.2-3.8-5.2-5.1-9.4-6.3-2.8-0.8-5.9-1.5-6.7-1.4-0.8 0.1-3.1 0.5-5 1-1.9 0.5-5.5 2.6-7.9 4.7zm85 0c-2.4 2-5.3 5.5-6.4 7.7-1.1 2.2-2.2 6.7-2.5 10-0.3 4 0.1 7.6 1.2 11 0.8 2.8 3 6.8 4.8 8.9 1.8 2.1 5.1 4.8 7.3 5.9 2.4 1.3 5.9 2.1 9 2.1 3.1 0 6.6-0.8 9-2.1 2.2-1.1 5.5-3.8 7.3-5.9 1.7-2.1 3.9-5.9 4.7-8.4 0.8-2.5 1.5-6.6 1.5-9.2 0-2.7-0.9-7.2-2-10-1.1-2.9-3.6-7-5.7-9-2.3-2.4-5.7-4.4-8.8-5.3-2.8-0.8-5.7-1.5-6.5-1.4-0.8 0.1-3.1 0.5-5 1-1.9 0.5-5.5 2.6-7.9 4.7z"/>
</svg>