<svg version="1.2" xmlns="http://www.w3.org/2000/svg" viewBox="0 0 24 24" width="24" height="24"><style>.a{fill:#a5c9ca}</style><path fill-rule="evenodd" class="a" d="m20 20h-16v-16h16zm-4-18h-2v-2h2zm-8-2h2v2h-2zm16 8v2h-2v-2zm-7-8h4c1.7 0 3 1.3 3 3v4h-2v-4c0-0.6-0.4-1-1-1h-4zm-9 24v-2h2v2zm16-13v2h-2v-2zm0 5h-2v-2h2zm-13-16h2v2h-2zm2 24h-2v-2h2zm-6 0h-4c-1.7 0-3-1.3-3-3v-4h2v4c0 0.6 0.4 1 1 1h4zm-7-13h2v2h-2zm24 6v4c0 1.7-1.3 3-3 3h-4v-2h4c0.6 0 1-0.4 1-1v-4zm-24-9h2v2h-2zm16 16h-2v-2h2zm-16-17v-4c0-1.7 1.3-3 3-3h4v2h-4c-0.6 0-1 0.4-1 1v4zm0 7h2v2h-2z"/></svg>