<svg version="1.2" xmlns="http://www.w3.org/2000/svg" viewBox="0 0 24 24" width="24" height="24"><style>.a{fill:#a5c9ca}</style><path fill-rule="evenodd" class="a" d="m12 2c5.5 0 10 4.5 10 10 0 5.5-4.5 10-10 10-5.5 0-10-4.5-10-10 0-5.5 4.5-10 10-10zm5 13.3c0-0.5-0.3-0.8-0.8-0.8h-8.4c-0.5 0-0.8 0.3-0.8 0.8 0 0.4 0.3 0.7 0.8 0.7h8.5c0.4 0 0.7-0.3 0.7-0.7zm0-3.3c0-0.4-0.3-0.7-0.7-0.7h-8.5c-0.5 0-0.8 0.3-0.8 0.7 0 0.4 0.3 0.8 0.8 0.8h8.5c0.4 0 0.7-0.4 0.7-0.8zm0-3.2c0-0.5-0.3-0.8-0.7-0.8h-8.5c-0.5 0-0.8 0.3-0.8 0.8 0 0.4 0.3 0.7 0.8 0.7h8.5c0.4 0 0.7-0.3 0.7-0.7z"/></svg>