<svg version="1.2" xmlns="http://www.w3.org/2000/svg" viewBox="0 0 256 256" width="256" height="256"><style>.a{fill:#2c3333}</style><path fill-rule="evenodd" class="a" d="m180.8 0.8c13.6 0.6 22.9 2.8 31 5.9 8.5 3.3 15.6 7.7 22.7 14.8 7.1 7.1 11.5 14.2 14.8 22.7 3.1 8.1 5.3 17.4 5.9 31 0.7 13.7 0.8 18 0.8 52.8 0 34.8-0.1 39.1-0.8 52.8-0.6 13.6-2.8 22.9-5.9 31-3.3 8.5-7.7 15.6-14.8 22.7-7.1 7.1-14.2 11.5-22.7 14.8-8.1 3.1-17.4 5.3-31 5.9-13.7 0.7-18 0.8-52.8 0.8-34.8 0-39.1-0.1-52.8-0.8-13.6-0.6-22.9-2.8-31-5.9-8.5-3.3-15.6-7.7-22.7-14.8-7.1-7.1-11.5-14.2-14.8-22.7-3.1-8.1-5.3-17.4-5.9-31-0.7-13.7-0.8-18-0.8-52.8 0-34.8 0.1-39.1 0.8-52.8 0.6-13.6 2.8-22.9 5.9-31 3.3-8.5 7.7-15.6 14.8-22.7 7.1-7.1 14.2-11.5 22.7-14.8 8.1-3.1 17.4-5.3 31-5.9 13.7-0.7 18-0.8 52.8-0.8 34.8 0 39.1 0.1 52.8 0.8zm-104.5 23c-12.5 0.6-19.3 2.7-23.8 4.4-6 2.3-10.2 5.1-14.7 9.6-4.5 4.5-7.3 8.7-9.6 14.7-1.7 4.5-3.8 11.3-4.4 23.8-0.6 13.5-0.7 17.5-0.7 51.7 0 34.2 0.1 38.2 0.7 51.7 0.6 12.5 2.7 19.3 4.4 23.8 2.3 6 5.1 10.2 9.6 14.7 4.5 4.5 8.7 7.3 14.7 9.6 4.5 1.7 11.3 3.8 23.8 4.4 13.5 0.6 17.5 0.7 51.7 0.7 34.2 0 38.2-0.1 51.7-0.7 12.5-0.6 19.3-2.7 23.8-4.4 6-2.3 10.2-5.1 14.7-9.6 4.5-4.5 7.3-8.7 9.6-14.7 1.7-4.5 3.8-11.3 4.4-23.8 0.6-13.5 0.7-17.5 0.7-51.7 0-34.2-0.1-38.2-0.7-51.7-0.6-12.5-2.7-19.3-4.4-23.8-2.3-6-5.1-10.2-9.6-14.7-4.5-4.5-8.7-7.3-14.7-9.6-4.5-1.7-11.3-3.8-23.8-4.4-13.5-0.6-17.5-0.7-51.7-0.7-34.2 0-38.2 0.1-51.7 0.7zm117.4 104.2c0 36.3-29.4 65.7-65.7 65.7-36.3 0-65.7-29.4-65.7-65.7 0-36.3 29.4-65.7 65.7-65.7 36.3 0 65.7 29.4 65.7 65.7zm-23 0c0-23.6-19.1-42.7-42.7-42.7-23.6 0-42.7 19.1-42.7 42.7 0 23.6 19.1 42.7 42.7 42.7 23.6 0 42.7-19.1 42.7-42.7zm41-68.3c0 8.5-6.9 15.3-15.4 15.3-8.5 0-15.3-6.8-15.3-15.3 0-8.5 6.8-15.4 15.3-15.4 8.5 0 15.4 6.9 15.4 15.4z"/></svg>