<svg version="1.2" xmlns="http://www.w3.org/2000/svg" viewBox="0 0 24 24" width="24" height="24"><style>.a{fill:#a5c9ca}</style><path fill-rule="evenodd" class="a" d="m24 14c0 5.5-4.5 10-10 10-2.8 0-5.3-1.2-7.1-3h3.3c1.1 0.6 2.4 1 3.8 1 4.4 0 8-3.6 8-8 0-4.4-3.6-8-8-8-1.4 0-2.7 0.4-3.8 1h-3.3c1.8-1.8 4.3-3 7.1-3 5.5 0 10 4.5 10 10zm-12-11.3v-2.7h4v2.7c-1.4-0.2-2.6-0.2-4 0zm8.9 2.1l1.4-1.4 1.4 1.4-1.3 1.3q-0.7-0.7-1.5-1.3zm-18.9 4.2h8v2h-8zm-2 4h8v2h-8zm3 4h7v2h-7zm12.5-1.7c-0.7 0.8-2 0.9-2.8 0.1-0.8-0.7-0.9-2-0.2-2.8 0.5-0.5 1.2-0.7 1.9-0.6l3.7-3.1 0.4 0.4-2.6 4c0.2 0.7 0.1 1.4-0.4 2z"/></svg>